<svg id="botao_1" data-name="botao 1" xmlns="http://www.w3.org/2000/svg" width="281" height="387" viewBox="0 0 281 387">
  <metadata><?xpacket begin="﻿" id="W5M0MpCehiHzreSzNTczkc9d"?>
<x:xmpmeta xmlns:x="adobe:ns:meta/" x:xmptk="Adobe XMP Core 5.6-c138 79.159824, 2016/09/14-01:09:01        ">
   <rdf:RDF xmlns:rdf="http://www.w3.org/1999/02/22-rdf-syntax-ns#">
      <rdf:Description rdf:about=""/>
   </rdf:RDF>
</x:xmpmeta>
                                                                                                    
                                                                                                    
                                                                                                    
                                                                                                    
                                                                                                    
                                                                                                    
                                                                                                    
                                                                                                    
                                                                                                    
                                                                                                    
                                                                                                    
                                                                                                    
                                                                                                    
                                                                                                    
                                                                                                    
                                                                                                    
                                                                                                    
                                                                                                    
                                                                                                    
                                                                                                    
                           
<?xpacket end="w"?></metadata>
<defs>
    <style>
      .cls-1 {
        fill: #fff;
      }

      .cls-2 {
        font-size: 30px;
        text-anchor: middle;
        font-family: FiraSans;
        font-weight: 700;
      }

      .cls-3 {
        fill: #3e8edf;
        fill-rule: evenodd;
      }
    </style>
  </defs>
  <rect id="Rounded_Rectangle_1" data-name="Rounded Rectangle 1" class="cls-1" width="281" height="387" rx="25" ry="25"/>
  <text id="Sou_Designer" data-name="Sou Designer" class="cls-2" x="139.921" y="273.817">Sou Designer</text>
  <path id="Forma_1" data-name="Forma 1" class="cls-3" d="M846.858,988.282l-12.049-.8-6.131-6.131A20.062,20.062,0,0,1,830.7,970.6a5.024,5.024,0,0,0-1.53-3.609,28.617,28.617,0,1,0-37.34,0,15.638,15.638,0,0,1-1.53,10.342,5.048,5.048,0,0,0,2.235,4.19l-4.767,5.959-13.562.848A15.177,15.177,0,0,0,760,1003.45V1011h3.367v-7.55a11.8,11.8,0,0,1,11.047-11.758l13.625-.852,11.263,9.65a1.65,1.65,0,0,0,1.1.41,1.708,1.708,0,0,0,1.19-.49l1.914-1.917,1.636,2.457-4.5,7.5a1.679,1.679,0,0,0-.239.87V1011h3.367v-1.22l4.809-8.01a1.692,1.692,0,0,0-.042-1.8l-2.6-3.9L810.5,991.5l4.567,4.567-2.6,3.9a1.692,1.692,0,0,0-.042,1.8l4.809,8.01V1011H820.6v-1.68a1.671,1.671,0,0,0-.241-0.87l-4.5-7.5,1.636-2.459,1.914,1.909a1.679,1.679,0,0,0,1.192.5,1.657,1.657,0,0,0,1.01-.34l12.967-9.721,12.057,0.8a11.812,11.812,0,0,1,11,11.758v7.6H861v-7.6A15.189,15.189,0,0,0,846.858,988.282ZM785.25,945.35a25.25,25.25,0,1,1,40.365,20.2h-8.382V954.556l5.9-4.914a11.651,11.651,0,0,0,4.2-8.975,8.722,8.722,0,0,0-8.416-8.784,8.2,8.2,0,0,0-4.214,1.173,8.4,8.4,0,0,0-8.4,0,8.217,8.217,0,0,0-4.217-1.173,8.722,8.722,0,0,0-8.416,8.784,11.648,11.648,0,0,0,4.2,8.975l5.9,4.914V965.55h-8.382A25.311,25.311,0,0,1,785.25,945.35Zm40.4,26.933h-30.3a1.683,1.683,0,0,1,0-3.366h30.312A1.683,1.683,0,0,1,825.65,972.283Zm1.683,5.05a1.686,1.686,0,0,1-1.683,1.684h-30.3a1.684,1.684,0,0,1,0-3.367h30.3A1.685,1.685,0,0,1,827.333,977.333Zm-22.1-30.5a1.682,1.682,0,0,0,2.115,0A8.374,8.374,0,0,0,810.5,940.3a8.495,8.495,0,0,0-.089-1.153c-0.015-.11-0.036-0.216-0.056-0.325a8.294,8.294,0,0,0-.2-0.858c-0.027-.093-0.051-0.187-0.081-0.28a8.449,8.449,0,0,0-.428-1.049c-0.029-.059-0.066-0.114-0.1-0.173a7.933,7.933,0,0,0-.5-0.825c-0.03-.044-0.052-0.094-0.082-0.138a4.881,4.881,0,0,1,3.06,0c-0.03.044-.052,0.094-0.082,0.138a8.533,8.533,0,0,0-.5.825c-0.031.059-.068,0.114-0.1,0.173a8.513,8.513,0,0,0-.428,1.049c-0.03.093-.054,0.187-0.081,0.28a8.233,8.233,0,0,0-.2.858c-0.02.108-.041,0.215-0.056,0.325a8.495,8.495,0,0,0-.089,1.153,8.374,8.374,0,0,0,3.151,6.528,1.681,1.681,0,0,0,2.114,0,8.21,8.21,0,0,0,3.062-7.681c-0.015-.11-0.035-0.216-0.055-0.325a8.029,8.029,0,0,0-.2-0.857c-0.027-.094-0.05-0.188-0.081-0.281a8.2,8.2,0,0,0-.426-1.047c-0.031-.064-0.07-0.123-0.1-0.187a8.337,8.337,0,0,0-.483-0.806c-0.032-.047-0.056-0.1-0.09-0.148a4.878,4.878,0,0,1,1.531-.246,5.381,5.381,0,0,1,5.05,5.417,8.29,8.29,0,0,1-2.993,6.388l-6.5,5.419a1.682,1.682,0,0,0-.606,1.293V965.55h-6.734V953.767a1.689,1.689,0,0,0-.606-1.3l-6.5-5.418a8.293,8.293,0,0,1-2.993-6.387,5.381,5.381,0,0,1,5.05-5.417,4.886,4.886,0,0,1,1.53.246c-0.033.047-.055,0.1-0.089,0.148a8.544,8.544,0,0,0-.483.806c-0.034.062-.072,0.123-0.1,0.187a8.5,8.5,0,0,0-.426,1.047c-0.03.093-.053,0.187-0.08,0.281a8.029,8.029,0,0,0-.2.857c-0.02.108-.04,0.215-0.056,0.325a8.495,8.495,0,0,0-.089,1.153A8.374,8.374,0,0,0,805.234,946.828Zm0.216-6.528a4.936,4.936,0,0,1,.113-0.987c0.017-.079.033-0.158,0.054-0.235a4.865,4.865,0,0,1,.324-0.916c0.012-.025.031-0.049,0.043-0.076a4.924,4.924,0,0,1,.308-0.488,5.115,5.115,0,0,1,.308.488c0.013,0.027.03,0.051,0.042,0.076a4.94,4.94,0,0,1,.325.916c0.02,0.077.037,0.156,0.054,0.235a4.4,4.4,0,0,1,0,1.973c-0.017.079-.034,0.158-0.054,0.236a4.94,4.94,0,0,1-.325.916c-0.014.027-.031,0.05-0.044,0.075a5.1,5.1,0,0,1-.308.487,5.1,5.1,0,0,1-.308-0.487c-0.014-.026-0.03-0.05-0.044-0.075a4.94,4.94,0,0,1-.325-0.916c-0.02-.078-0.037-0.157-0.054-0.236A5.223,5.223,0,0,1,805.45,940.3Zm8.417,0a5.009,5.009,0,0,1,.112-0.987c0.017-.079.034-0.158,0.054-0.235a4.94,4.94,0,0,1,.325-0.916c0.012-.025.03-0.049,0.042-0.076a5.115,5.115,0,0,1,.308-0.488,5.115,5.115,0,0,1,.308.488c0.014,0.027.031,0.051,0.042,0.076a4.8,4.8,0,0,1,.325.916c0.02,0.077.037,0.156,0.054,0.235a4.363,4.363,0,0,1,0,1.973c-0.017.079-.034,0.158-0.054,0.236a4.8,4.8,0,0,1-.325.916c-0.013.027-.03,0.05-0.043,0.075a5.1,5.1,0,0,1-.308.487,4.91,4.91,0,0,1-.308-0.487c-0.014-.026-0.031-0.05-0.044-0.075a4.868,4.868,0,0,1-.325-0.916c-0.02-.078-0.037-0.157-0.054-0.236A5.223,5.223,0,0,1,813.867,940.3Zm-13.555,56.624-9.364-8.026,4.828-6.037,11.957,6.643Zm1.534-14.541h17.308l-8.654,4.808ZM820.758,997l-2.335-2.335-5.154-5.155,12.09-6.716,6.146,6.146Zm15.485-73.035,3.366-3.366,2.38,2.381-3.366,3.366Zm0,42.777,2.381-2.381L842,967.722l-2.381,2.381Zm7.919-23.07h3.366v3.366h-3.366v-3.366Zm-65.158-20.692,2.38-2.381,3.366,3.366-2.38,2.381Zm0,44.749,3.366-3.366,2.381,2.381-3.366,3.366Zm-5.546-24.057h3.366v3.366h-3.366v-3.366ZM808.817,910h3.366v3.367h-3.366V910Z" transform="translate(-670 -803)"/>
</svg>
